<?xml version="1.0" encoding="UTF-8" standalone="no"?>
<svg version="1.1" width="111.811px" height="122.88px" viewBox="0 0 111.811 122.88" xmlns="http://www.w3.org/2000/svg">
  <style>
    #shield {
      fill: #303030;
    }

    @media (prefers-color-scheme: dark) {
      #shield {
        fill: #f0f0f0;
      }
    }
  </style>
  <defs id="defs64" />
  <path fill-rule="evenodd" clip-rule="evenodd" d="M 55.731156,4.1397753 C 74.616297,14.911946 85.958318,22.074347 100.8499,20.712694 103.45068,73.315981 92.824497,106.29204 56.62689,118.74023 22.000256,108.19428 9.3530215,75.482833 10.811409,19.914865 28.292711,20.829697 38.543971,15.915348 55.731156,4.1397753 Z m 0.414576,15.0162037 c 13.097848,8.30166 21.245655,14.071641 31.400011,13.144833 1.773465,35.870986 -7.788507,62.5826 -31.263661,71.423208 -0.148326,-0.0543 -0.293889,-0.11055 -0.441294,-0.16583 V 19.389063 Z M 55.751424,11.849762 C 72.752739,22.625983 81.137604,26.529025 93.92377,26.529025 96.225129,73.091474 86.060409,99.594446 56.068578,111.44736 27.317331,100.03958 16.464329,75.360306 17.755964,26.171285 c 14.705085,0 23.285371,-2.893036 37.99546,-14.321523 z" id="shield" style="stroke-width:0.921281" />
</svg>
